<svg xmlns="http://www.w3.org/2000/svg" xmlns:xlink="http://www.w3.org/1999/xlink" width="118" zoomAndPan="magnify" viewBox="0 0 88.5 30.000001" height="40" preserveAspectRatio="xMidYMid meet" version="1.0"><defs><g/><clipPath id="a83bd56992"><path d="M 1.183594 13 L 31 13 L 31 24 L 1.183594 24 Z M 1.183594 13 " clip-rule="nonzero"/></clipPath><clipPath id="163203eb7c"><path d="M 10 3 L 38.925781 3 L 38.925781 14 L 10 14 Z M 10 3 " clip-rule="nonzero"/></clipPath><clipPath id="ad774621c1"><path d="M 82 11 L 86.832031 11 L 86.832031 18 L 82 18 Z M 82 11 " clip-rule="nonzero"/></clipPath></defs><g clip-path="url(#a83bd56992)"><path fill="#000000" d="M 20.570312 15.175781 C 16.828125 16.515625 13.371094 17.503906 10.871094 18.007812 C 8.570312 18.46875 7.074219 18.515625 6.898438 18.042969 C 6.730469 17.589844 7.820312 16.730469 9.746094 15.683594 C 9.9375 15.582031 10.046875 15.371094 10.019531 15.15625 C 10.019531 15.152344 10.015625 15.148438 10.015625 15.144531 C 9.96875 14.792969 9.582031 14.585938 9.253906 14.742188 C 4.28125 17.136719 1.203125 19.320312 1.605469 20.414062 C 2.019531 21.527344 5.988281 21.214844 11.574219 19.824219 C 11.777344 19.773438 11.992188 19.84375 12.121094 20.003906 C 14.761719 23.273438 19.324219 24.675781 23.53125 23.171875 C 28.847656 21.269531 30.09375 17.460938 30.214844 14.640625 C 30.285156 13.015625 29.746094 11.894531 20.570312 15.175781 Z M 20.570312 15.175781 " fill-opacity="1" fill-rule="nonzero"/></g><g clip-path="url(#163203eb7c)"><path fill="#000000" d="M 38.523438 7.207031 C 38.101562 6.066406 33.980469 6.417969 28.214844 7.882812 C 25.613281 4.425781 20.917969 2.902344 16.597656 4.449219 C 12.136719 6.042969 10.585938 9.101562 10.109375 11.601562 C 9.773438 13.339844 10.050781 14.898438 19.25 11.609375 C 22.933594 10.289062 26.335938 9.3125 28.828125 8.800781 C 31.195312 8.316406 32.742188 8.257812 32.917969 8.738281 C 33.074219 9.160156 32.15625 9.925781 30.488281 10.867188 C 30.121094 11.078125 29.933594 11.496094 30.015625 11.90625 C 30.019531 11.914062 30.019531 11.917969 30.019531 11.925781 C 30.144531 12.558594 30.855469 12.890625 31.441406 12.601562 C 36.078125 10.316406 38.910156 8.257812 38.523438 7.207031 Z M 38.523438 7.207031 " fill-opacity="1" fill-rule="nonzero"/></g><g fill="#000000" fill-opacity="1"><g transform="translate(36.280105, 17.442268)"><g><path d="M 0.765625 0 L 0.765625 -6.40625 L 2 -6.40625 L 4.28125 -3.078125 L 6.546875 -6.40625 L 7.765625 -6.40625 L 7.765625 0 L 6.328125 0 L 6.328125 -3.84375 L 4.765625 -1.578125 L 3.765625 -1.578125 L 2.21875 -3.859375 L 2.21875 0 Z M 0.765625 0 "/></g></g></g><g fill="#000000" fill-opacity="1"><g transform="translate(45.633662, 17.442268)"><g><path d="M 0.078125 0 L 2.625 -6.40625 L 4.046875 -6.40625 L 6.59375 0 L 5.03125 0 L 4.609375 -1.109375 L 2.0625 -1.109375 L 1.640625 0 Z M 2.4375 -2.25 L 4.234375 -2.25 L 3.34375 -4.59375 Z M 2.4375 -2.25 "/></g></g></g><g fill="#000000" fill-opacity="1"><g transform="translate(53.121986, 17.442268)"><g><path d="M 0.25 0 L 2.421875 -3.265625 L 0.34375 -6.40625 L 2.015625 -6.40625 L 2.78125 -5.203125 L 3.359375 -4.328125 L 4.71875 -6.40625 L 6.375 -6.40625 L 4.3125 -3.28125 L 6.484375 0 L 4.78125 0 L 3.90625 -1.359375 L 3.375 -2.171875 L 2.828125 -1.359375 L 1.953125 0 Z M 0.25 0 "/></g></g></g><g fill="#000000" fill-opacity="1"><g transform="translate(60.67431, 17.442268)"><g/></g></g><g fill="#000000" fill-opacity="1"><g transform="translate(63.636725, 17.442268)"><g><path d="M 4.71875 0 L 4.71875 -2.578125 L 2.21875 -2.578125 L 2.21875 0 L 0.765625 0 L 0.765625 -6.40625 L 2.21875 -6.40625 L 2.21875 -3.9375 L 4.71875 -3.9375 L 4.71875 -6.40625 L 6.171875 -6.40625 L 6.171875 0 Z M 4.71875 0 "/></g></g></g><g fill="#000000" fill-opacity="1"><g transform="translate(71.399357, 17.442268)"><g><path d="M 0.765625 0 L 0.765625 -6.40625 L 4.96875 -6.40625 L 4.96875 -5.171875 L 2.21875 -5.171875 L 2.21875 -3.84375 L 4.71875 -3.84375 L 4.71875 -2.625 L 2.21875 -2.625 L 2.21875 -1.234375 L 5.078125 -1.234375 L 5.078125 0 Z M 0.765625 0 "/></g></g></g><g fill="#000000" fill-opacity="1"><g transform="translate(77.753919, 17.442268)"><g><path d="M 0.765625 0 L 0.765625 -6.40625 L 2.21875 -6.40625 L 2.21875 0 Z M 0.765625 0 "/></g></g></g><g clip-path="url(#ad774621c1)"><g fill="#000000" fill-opacity="1"><g transform="translate(81.557511, 17.442268)"><g><path d="M 0.765625 0 L 0.765625 -6.40625 L 2.21875 -6.40625 L 2.21875 -1.359375 L 5.015625 -1.359375 L 5.015625 0 Z M 0.765625 0 "/></g></g></g></g><g fill="#000000" fill-opacity="1"><g transform="translate(43.691973, 21.486625)"><g><path d="M 0.015625 0 L 0.609375 -1.484375 L 0.9375 -1.484375 L 1.53125 0 L 1.171875 0 L 1.078125 -0.25 L 0.484375 -0.25 L 0.375 0 Z M 0.5625 -0.515625 L 0.984375 -0.515625 L 0.78125 -1.0625 Z M 0.5625 -0.515625 "/></g></g></g><g fill="#000000" fill-opacity="1"><g transform="translate(45.987236, 21.486625)"><g><path d="M 0.171875 0 L 0.171875 -1.484375 L 1.15625 -1.484375 L 1.15625 -1.203125 L 0.515625 -1.203125 L 0.515625 -0.890625 L 1.09375 -0.890625 L 1.09375 -0.609375 L 0.515625 -0.609375 L 0.515625 -0.28125 L 1.171875 -0.28125 L 1.171875 0 Z M 0.171875 0 "/></g></g></g><g fill="#000000" fill-opacity="1"><g transform="translate(48.019214, 21.486625)"><g><path d="M 0.171875 0 L 0.171875 -1.484375 L 0.8125 -1.484375 C 0.925781 -1.484375 1.023438 -1.460938 1.109375 -1.421875 C 1.191406 -1.378906 1.253906 -1.320312 1.296875 -1.25 C 1.347656 -1.175781 1.375 -1.082031 1.375 -0.96875 C 1.375 -0.863281 1.347656 -0.769531 1.296875 -0.6875 C 1.242188 -0.613281 1.175781 -0.554688 1.09375 -0.515625 L 1.390625 0 L 1 0 L 0.734375 -0.46875 L 0.515625 -0.46875 L 0.515625 0 Z M 0.515625 -0.75 L 0.765625 -0.75 C 0.847656 -0.75 0.910156 -0.765625 0.953125 -0.796875 C 1.003906 -0.835938 1.03125 -0.894531 1.03125 -0.96875 C 1.03125 -1.039062 1.003906 -1.097656 0.953125 -1.140625 C 0.910156 -1.179688 0.847656 -1.203125 0.765625 -1.203125 L 0.515625 -1.203125 Z M 0.515625 -0.75 "/></g></g></g><g fill="#000000" fill-opacity="1"><g transform="translate(50.259273, 21.486625)"><g><path d="M 0.890625 0.03125 C 0.734375 0.03125 0.59375 0 0.46875 -0.0625 C 0.351562 -0.132812 0.257812 -0.226562 0.1875 -0.34375 C 0.125 -0.457031 0.09375 -0.59375 0.09375 -0.75 C 0.09375 -0.894531 0.125 -1.023438 0.1875 -1.140625 C 0.257812 -1.253906 0.351562 -1.34375 0.46875 -1.40625 C 0.59375 -1.476562 0.734375 -1.515625 0.890625 -1.515625 C 1.046875 -1.515625 1.179688 -1.476562 1.296875 -1.40625 C 1.410156 -1.34375 1.5 -1.253906 1.5625 -1.140625 C 1.632812 -1.023438 1.671875 -0.894531 1.671875 -0.75 C 1.671875 -0.59375 1.632812 -0.457031 1.5625 -0.34375 C 1.5 -0.226562 1.410156 -0.132812 1.296875 -0.0625 C 1.179688 0 1.046875 0.03125 0.890625 0.03125 Z M 0.4375 -0.75 C 0.4375 -0.65625 0.453125 -0.570312 0.484375 -0.5 C 0.523438 -0.4375 0.578125 -0.382812 0.640625 -0.34375 C 0.710938 -0.3125 0.796875 -0.296875 0.890625 -0.296875 C 0.972656 -0.296875 1.046875 -0.3125 1.109375 -0.34375 C 1.179688 -0.382812 1.234375 -0.4375 1.265625 -0.5 C 1.304688 -0.570312 1.328125 -0.65625 1.328125 -0.75 C 1.328125 -0.832031 1.304688 -0.90625 1.265625 -0.96875 C 1.234375 -1.039062 1.179688 -1.097656 1.109375 -1.140625 C 1.046875 -1.179688 0.972656 -1.203125 0.890625 -1.203125 C 0.796875 -1.203125 0.710938 -1.179688 0.640625 -1.140625 C 0.578125 -1.097656 0.523438 -1.039062 0.484375 -0.96875 C 0.453125 -0.90625 0.4375 -0.832031 0.4375 -0.75 Z M 0.4375 -0.75 "/></g></g></g><g fill="#000000" fill-opacity="1"><g transform="translate(52.773235, 21.486625)"><g><path d="M 0.703125 0.03125 C 0.578125 0.03125 0.46875 0.0078125 0.375 -0.03125 C 0.28125 -0.0703125 0.207031 -0.128906 0.15625 -0.203125 C 0.113281 -0.285156 0.09375 -0.375 0.09375 -0.46875 L 0.421875 -0.46875 C 0.421875 -0.40625 0.445312 -0.351562 0.5 -0.3125 C 0.550781 -0.269531 0.613281 -0.25 0.6875 -0.25 C 0.757812 -0.25 0.816406 -0.257812 0.859375 -0.28125 C 0.898438 -0.3125 0.921875 -0.351562 0.921875 -0.40625 C 0.921875 -0.457031 0.894531 -0.5 0.84375 -0.53125 C 0.800781 -0.5625 0.726562 -0.585938 0.625 -0.609375 C 0.445312 -0.648438 0.316406 -0.707031 0.234375 -0.78125 C 0.148438 -0.851562 0.109375 -0.953125 0.109375 -1.078125 C 0.109375 -1.210938 0.15625 -1.316406 0.25 -1.390625 C 0.351562 -1.472656 0.488281 -1.515625 0.65625 -1.515625 C 0.78125 -1.515625 0.882812 -1.492188 0.96875 -1.453125 C 1.050781 -1.410156 1.113281 -1.351562 1.15625 -1.28125 C 1.207031 -1.207031 1.234375 -1.125 1.234375 -1.03125 L 0.90625 -1.03125 C 0.90625 -1.09375 0.882812 -1.140625 0.84375 -1.171875 C 0.800781 -1.210938 0.742188 -1.234375 0.671875 -1.234375 C 0.597656 -1.234375 0.539062 -1.21875 0.5 -1.1875 C 0.457031 -1.164062 0.4375 -1.128906 0.4375 -1.078125 C 0.4375 -1.035156 0.457031 -1 0.5 -0.96875 C 0.550781 -0.9375 0.628906 -0.90625 0.734375 -0.875 C 0.921875 -0.832031 1.054688 -0.773438 1.140625 -0.703125 C 1.222656 -0.628906 1.265625 -0.535156 1.265625 -0.421875 C 1.265625 -0.273438 1.210938 -0.160156 1.109375 -0.078125 C 1.015625 -0.00390625 0.878906 0.03125 0.703125 0.03125 Z M 0.703125 0.03125 "/></g></g></g><g fill="#000000" fill-opacity="1"><g transform="translate(54.879526, 21.486625)"><g><path d="M 0.171875 0 L 0.171875 -1.484375 L 0.765625 -1.484375 C 0.878906 -1.484375 0.976562 -1.460938 1.0625 -1.421875 C 1.15625 -1.378906 1.222656 -1.316406 1.265625 -1.234375 C 1.316406 -1.148438 1.34375 -1.054688 1.34375 -0.953125 C 1.34375 -0.835938 1.316406 -0.738281 1.265625 -0.65625 C 1.222656 -0.582031 1.15625 -0.523438 1.0625 -0.484375 C 0.976562 -0.441406 0.878906 -0.421875 0.765625 -0.421875 L 0.515625 -0.421875 L 0.515625 0 Z M 0.515625 -0.703125 L 0.734375 -0.703125 C 0.816406 -0.703125 0.878906 -0.722656 0.921875 -0.765625 C 0.972656 -0.804688 1 -0.867188 1 -0.953125 C 1 -1.023438 0.972656 -1.082031 0.921875 -1.125 C 0.878906 -1.164062 0.816406 -1.1875 0.734375 -1.1875 L 0.515625 -1.1875 Z M 0.515625 -0.703125 "/></g></g></g><g fill="#000000" fill-opacity="1"><g transform="translate(57.036777, 21.486625)"><g><path d="M 0.015625 0 L 0.609375 -1.484375 L 0.9375 -1.484375 L 1.53125 0 L 1.171875 0 L 1.078125 -0.25 L 0.484375 -0.25 L 0.375 0 Z M 0.5625 -0.515625 L 0.984375 -0.515625 L 0.78125 -1.0625 Z M 0.5625 -0.515625 "/></g></g></g><g fill="#000000" fill-opacity="1"><g transform="translate(59.33204, 21.486625)"><g><path d="M 0.859375 0.03125 C 0.710938 0.03125 0.578125 0 0.453125 -0.0625 C 0.335938 -0.132812 0.25 -0.226562 0.1875 -0.34375 C 0.125 -0.457031 0.09375 -0.59375 0.09375 -0.75 C 0.09375 -0.894531 0.125 -1.023438 0.1875 -1.140625 C 0.25 -1.253906 0.335938 -1.34375 0.453125 -1.40625 C 0.578125 -1.476562 0.710938 -1.515625 0.859375 -1.515625 C 0.984375 -1.515625 1.097656 -1.488281 1.203125 -1.4375 C 1.304688 -1.394531 1.394531 -1.328125 1.46875 -1.234375 C 1.539062 -1.148438 1.59375 -1.050781 1.625 -0.9375 L 1.265625 -0.9375 C 1.242188 -1.007812 1.195312 -1.070312 1.125 -1.125 C 1.050781 -1.175781 0.96875 -1.203125 0.875 -1.203125 C 0.789062 -1.203125 0.710938 -1.179688 0.640625 -1.140625 C 0.578125 -1.097656 0.523438 -1.039062 0.484375 -0.96875 C 0.453125 -0.90625 0.4375 -0.832031 0.4375 -0.75 C 0.4375 -0.65625 0.453125 -0.570312 0.484375 -0.5 C 0.523438 -0.4375 0.578125 -0.382812 0.640625 -0.34375 C 0.703125 -0.3125 0.773438 -0.296875 0.859375 -0.296875 C 0.960938 -0.296875 1.050781 -0.316406 1.125 -0.359375 C 1.195312 -0.410156 1.25 -0.476562 1.28125 -0.5625 L 1.625 -0.5625 C 1.601562 -0.445312 1.554688 -0.34375 1.484375 -0.25 C 1.410156 -0.164062 1.320312 -0.0976562 1.21875 -0.046875 C 1.113281 0.00390625 0.992188 0.03125 0.859375 0.03125 Z M 0.859375 0.03125 "/></g></g></g><g fill="#000000" fill-opacity="1"><g transform="translate(61.790797, 21.486625)"><g><path d="M 0.171875 0 L 0.171875 -1.484375 L 1.15625 -1.484375 L 1.15625 -1.203125 L 0.515625 -1.203125 L 0.515625 -0.890625 L 1.09375 -0.890625 L 1.09375 -0.609375 L 0.515625 -0.609375 L 0.515625 -0.28125 L 1.171875 -0.28125 L 1.171875 0 Z M 0.171875 0 "/></g></g></g><g fill="#000000" fill-opacity="1"><g transform="translate(63.822774, 21.486625)"><g/></g></g><g fill="#000000" fill-opacity="1"><g transform="translate(65.067013, 21.486625)"><g><path d="M 0.171875 0 L 0.171875 -1.484375 L 1.15625 -1.484375 L 1.15625 -1.203125 L 0.515625 -1.203125 L 0.515625 -0.890625 L 1.09375 -0.890625 L 1.09375 -0.609375 L 0.515625 -0.609375 L 0.515625 -0.28125 L 1.171875 -0.28125 L 1.171875 0 Z M 0.171875 0 "/></g></g></g><g fill="#000000" fill-opacity="1"><g transform="translate(67.09899, 21.486625)"><g><path d="M 0.171875 0 L 0.171875 -1.484375 L 0.46875 -1.484375 L 1.125 -0.578125 L 1.125 -1.484375 L 1.453125 -1.484375 L 1.453125 0 L 1.171875 0 L 0.515625 -0.90625 L 0.515625 0 Z M 0.171875 0 "/></g></g></g><g fill="#000000" fill-opacity="1"><g transform="translate(69.479187, 21.486625)"><g><path d="M 0.875 0.03125 C 0.71875 0.03125 0.582031 0 0.46875 -0.0625 C 0.351562 -0.132812 0.257812 -0.226562 0.1875 -0.34375 C 0.125 -0.457031 0.09375 -0.59375 0.09375 -0.75 C 0.09375 -0.894531 0.125 -1.023438 0.1875 -1.140625 C 0.25 -1.253906 0.335938 -1.34375 0.453125 -1.40625 C 0.578125 -1.476562 0.710938 -1.515625 0.859375 -1.515625 C 0.984375 -1.515625 1.09375 -1.492188 1.1875 -1.453125 C 1.289062 -1.410156 1.378906 -1.347656 1.453125 -1.265625 C 1.523438 -1.191406 1.578125 -1.101562 1.609375 -1 L 1.25 -1 C 1.207031 -1.0625 1.15625 -1.109375 1.09375 -1.140625 C 1.03125 -1.179688 0.957031 -1.203125 0.875 -1.203125 C 0.78125 -1.203125 0.703125 -1.179688 0.640625 -1.140625 C 0.578125 -1.109375 0.523438 -1.054688 0.484375 -0.984375 C 0.441406 -0.910156 0.421875 -0.832031 0.421875 -0.75 C 0.421875 -0.65625 0.441406 -0.570312 0.484375 -0.5 C 0.523438 -0.4375 0.578125 -0.382812 0.640625 -0.34375 C 0.703125 -0.300781 0.78125 -0.28125 0.875 -0.28125 C 0.988281 -0.28125 1.078125 -0.304688 1.140625 -0.359375 C 1.210938 -0.421875 1.257812 -0.492188 1.28125 -0.578125 L 0.8125 -0.578125 L 0.8125 -0.84375 L 1.640625 -0.84375 C 1.648438 -0.71875 1.640625 -0.597656 1.609375 -0.484375 C 1.578125 -0.378906 1.523438 -0.285156 1.453125 -0.203125 C 1.378906 -0.128906 1.296875 -0.0703125 1.203125 -0.03125 C 1.109375 0.0078125 1 0.03125 0.875 0.03125 Z M 0.875 0.03125 "/></g></g></g><g fill="#000000" fill-opacity="1"><g transform="translate(71.957056, 21.486625)"><g><path d="M 0.171875 0 L 0.171875 -1.484375 L 0.515625 -1.484375 L 0.515625 0 Z M 0.171875 0 "/></g></g></g><g fill="#000000" fill-opacity="1"><g transform="translate(73.396638, 21.486625)"><g><path d="M 0.171875 0 L 0.171875 -1.484375 L 0.46875 -1.484375 L 1.125 -0.578125 L 1.125 -1.484375 L 1.453125 -1.484375 L 1.453125 0 L 1.171875 0 L 0.515625 -0.90625 L 0.515625 0 Z M 0.171875 0 "/></g></g></g><g fill="#000000" fill-opacity="1"><g transform="translate(75.776835, 21.486625)"><g><path d="M 0.171875 0 L 0.171875 -1.484375 L 1.15625 -1.484375 L 1.15625 -1.203125 L 0.515625 -1.203125 L 0.515625 -0.890625 L 1.09375 -0.890625 L 1.09375 -0.609375 L 0.515625 -0.609375 L 0.515625 -0.28125 L 1.171875 -0.28125 L 1.171875 0 Z M 0.171875 0 "/></g></g></g><g fill="#000000" fill-opacity="1"><g transform="translate(77.808813, 21.486625)"><g><path d="M 0.171875 0 L 0.171875 -1.484375 L 1.15625 -1.484375 L 1.15625 -1.203125 L 0.515625 -1.203125 L 0.515625 -0.890625 L 1.09375 -0.890625 L 1.09375 -0.609375 L 0.515625 -0.609375 L 0.515625 -0.28125 L 1.171875 -0.28125 L 1.171875 0 Z M 0.171875 0 "/></g></g></g><g fill="#000000" fill-opacity="1"><g transform="translate(79.840791, 21.486625)"><g><path d="M 0.171875 0 L 0.171875 -1.484375 L 0.8125 -1.484375 C 0.925781 -1.484375 1.023438 -1.460938 1.109375 -1.421875 C 1.191406 -1.378906 1.253906 -1.320312 1.296875 -1.25 C 1.347656 -1.175781 1.375 -1.082031 1.375 -0.96875 C 1.375 -0.863281 1.347656 -0.769531 1.296875 -0.6875 C 1.242188 -0.613281 1.175781 -0.554688 1.09375 -0.515625 L 1.390625 0 L 1 0 L 0.734375 -0.46875 L 0.515625 -0.46875 L 0.515625 0 Z M 0.515625 -0.75 L 0.765625 -0.75 C 0.847656 -0.75 0.910156 -0.765625 0.953125 -0.796875 C 1.003906 -0.835938 1.03125 -0.894531 1.03125 -0.96875 C 1.03125 -1.039062 1.003906 -1.097656 0.953125 -1.140625 C 0.910156 -1.179688 0.847656 -1.203125 0.765625 -1.203125 L 0.515625 -1.203125 Z M 0.515625 -0.75 "/></g></g></g></svg>