<svg xmlns="http://www.w3.org/2000/svg" xmlns:xlink="http://www.w3.org/1999/xlink" width="150" zoomAndPan="magnify" viewBox="0 0 112.5 37.5" height="50" preserveAspectRatio="xMidYMid meet" version="1.0"><defs><g/><clipPath id="75b17fde5b"><path d="M 0.492188 17 L 30 17 L 30 29 L 0.492188 29 Z M 0.492188 17 " clip-rule="nonzero"/></clipPath><clipPath id="85f3fa897c"><path d="M 9 8 L 38.238281 8 L 38.238281 19 L 9 19 Z M 9 8 " clip-rule="nonzero"/></clipPath><clipPath id="66acff0553"><path d="M 105 10 L 111.511719 10 L 111.511719 21 L 105 21 Z M 105 10 " clip-rule="nonzero"/></clipPath><clipPath id="24f0fd8c18"><path d="M 108 24 L 111.511719 24 L 111.511719 27 L 108 27 Z M 108 24 " clip-rule="nonzero"/></clipPath></defs><g clip-path="url(#75b17fde5b)"><path fill="#ffffff" d="M 19.957031 19.914062 C 16.199219 21.285156 12.730469 22.296875 10.21875 22.808594 C 7.90625 23.277344 6.40625 23.328125 6.230469 22.847656 C 6.0625 22.382812 7.15625 21.503906 9.089844 20.433594 C 9.285156 20.328125 9.390625 20.113281 9.363281 19.898438 C 9.363281 19.894531 9.363281 19.890625 9.359375 19.886719 C 9.3125 19.523438 8.925781 19.3125 8.59375 19.472656 C 3.601562 21.917969 0.511719 24.152344 0.914062 25.265625 C 1.332031 26.40625 5.316406 26.089844 10.925781 24.667969 C 11.128906 24.613281 11.34375 24.683594 11.476562 24.847656 C 14.125 28.1875 18.707031 29.625 22.933594 28.085938 C 28.269531 26.140625 29.519531 22.25 29.644531 19.371094 C 29.714844 17.710938 29.171875 16.5625 19.957031 19.914062 Z M 19.957031 19.914062 " fill-opacity="1" fill-rule="nonzero"/></g><g clip-path="url(#85f3fa897c)"><path fill="#ffffff" d="M 37.984375 11.773438 C 37.5625 10.609375 33.421875 10.964844 27.632812 12.460938 C 25.019531 8.929688 20.304688 7.375 15.96875 8.953125 C 11.492188 10.582031 9.933594 13.707031 9.453125 16.261719 C 9.117188 18.039062 9.394531 19.628906 18.632812 16.269531 C 22.332031 14.921875 25.75 13.921875 28.25 13.402344 C 30.628906 12.90625 32.179688 12.847656 32.359375 13.335938 C 32.515625 13.769531 31.589844 14.550781 29.917969 15.515625 C 29.546875 15.726562 29.359375 16.15625 29.441406 16.574219 C 29.445312 16.582031 29.445312 16.589844 29.445312 16.59375 C 29.570312 17.238281 30.285156 17.582031 30.871094 17.285156 C 35.53125 14.953125 38.375 12.84375 37.984375 11.773438 Z M 37.984375 11.773438 " fill-opacity="1" fill-rule="nonzero"/></g><g fill="#ffffff" fill-opacity="1"><g transform="translate(38.565499, 20.105996)"><g><path d="M 1.109375 0 L 1.109375 -9.234375 L 2.890625 -9.234375 L 6.171875 -4.4375 L 9.4375 -9.234375 L 11.203125 -9.234375 L 11.203125 0 L 9.125 0 L 9.125 -5.546875 L 6.890625 -2.28125 L 5.4375 -2.28125 L 3.1875 -5.5625 L 3.1875 0 Z M 1.109375 0 "/></g></g></g><g fill="#ffffff" fill-opacity="1"><g transform="translate(52.063279, 20.105996)"><g><path d="M 0.125 0 L 3.78125 -9.234375 L 5.84375 -9.234375 L 9.515625 0 L 7.265625 0 L 6.640625 -1.59375 L 2.984375 -1.59375 L 2.359375 0 Z M 3.515625 -3.25 L 6.125 -3.25 L 4.8125 -6.625 Z M 3.515625 -3.25 "/></g></g></g><g fill="#ffffff" fill-opacity="1"><g transform="translate(62.869407, 20.105996)"><g><path d="M 0.359375 0 L 3.5 -4.71875 L 0.5 -9.234375 L 2.90625 -9.234375 L 4.015625 -7.515625 L 4.859375 -6.234375 L 6.8125 -9.234375 L 9.203125 -9.234375 L 6.21875 -4.734375 L 9.359375 0 L 6.890625 0 L 5.625 -1.953125 L 4.859375 -3.125 L 4.09375 -1.953125 L 2.828125 0 Z M 0.359375 0 "/></g></g></g><g fill="#ffffff" fill-opacity="1"><g transform="translate(73.767893, 20.105996)"><g/></g></g><g fill="#ffffff" fill-opacity="1"><g transform="translate(78.042846, 20.105996)"><g><path d="M 6.8125 0 L 6.8125 -3.71875 L 3.203125 -3.71875 L 3.203125 0 L 1.109375 0 L 1.109375 -9.234375 L 3.203125 -9.234375 L 3.203125 -5.6875 L 6.8125 -5.6875 L 6.8125 -9.234375 L 8.921875 -9.234375 L 8.921875 0 Z M 6.8125 0 "/></g></g></g><g fill="#ffffff" fill-opacity="1"><g transform="translate(89.244819, 20.105996)"><g><path d="M 1.109375 0 L 1.109375 -9.234375 L 7.171875 -9.234375 L 7.171875 -7.46875 L 3.1875 -7.46875 L 3.1875 -5.546875 L 6.8125 -5.546875 L 6.8125 -3.796875 L 3.1875 -3.796875 L 3.1875 -1.78125 L 7.3125 -1.78125 L 7.3125 0 Z M 1.109375 0 "/></g></g></g><g fill="#ffffff" fill-opacity="1"><g transform="translate(98.414857, 20.105996)"><g><path d="M 1.109375 0 L 1.109375 -9.234375 L 3.203125 -9.234375 L 3.203125 0 Z M 1.109375 0 "/></g></g></g><g clip-path="url(#66acff0553)"><g fill="#ffffff" fill-opacity="1"><g transform="translate(103.903683, 20.105996)"><g><path d="M 1.109375 0 L 1.109375 -9.234375 L 3.203125 -9.234375 L 3.203125 -1.96875 L 7.234375 -1.96875 L 7.234375 0 Z M 1.109375 0 "/></g></g></g></g><g fill="#ffffff" fill-opacity="1"><g transform="translate(38.127326, 26.909641)"><g><path d="M 0.03125 0 L 1.1875 -2.890625 L 1.828125 -2.890625 L 2.984375 0 L 2.28125 0 L 2.09375 -0.5 L 0.9375 -0.5 L 0.734375 0 Z M 1.109375 -1.015625 L 1.921875 -1.015625 L 1.515625 -2.078125 Z M 1.109375 -1.015625 "/></g></g></g><g fill="#ffffff" fill-opacity="1"><g transform="translate(42.601475, 26.909641)"><g><path d="M 0.34375 0 L 0.34375 -2.890625 L 2.25 -2.890625 L 2.25 -2.34375 L 1 -2.34375 L 1 -1.75 L 2.140625 -1.75 L 2.140625 -1.1875 L 1 -1.1875 L 1 -0.5625 L 2.296875 -0.5625 L 2.296875 0 Z M 0.34375 0 "/></g></g></g><g fill="#ffffff" fill-opacity="1"><g transform="translate(46.5624, 26.909641)"><g><path d="M 0.34375 0 L 0.34375 -2.890625 L 1.578125 -2.890625 C 1.804688 -2.890625 2 -2.847656 2.15625 -2.765625 C 2.320312 -2.691406 2.445312 -2.582031 2.53125 -2.4375 C 2.625 -2.289062 2.671875 -2.113281 2.671875 -1.90625 C 2.671875 -1.6875 2.617188 -1.5 2.515625 -1.34375 C 2.421875 -1.195312 2.289062 -1.082031 2.125 -1 L 2.71875 0 L 1.953125 0 L 1.4375 -0.90625 L 1 -0.90625 L 1 0 Z M 1 -1.453125 L 1.5 -1.453125 C 1.664062 -1.453125 1.789062 -1.488281 1.875 -1.5625 C 1.957031 -1.644531 2 -1.753906 2 -1.890625 C 2 -2.035156 1.957031 -2.144531 1.875 -2.21875 C 1.789062 -2.289062 1.664062 -2.328125 1.5 -2.328125 L 1 -2.328125 Z M 1 -1.453125 "/></g></g></g><g fill="#ffffff" fill-opacity="1"><g transform="translate(50.928939, 26.909641)"><g><path d="M 1.71875 0.0625 C 1.414062 0.0625 1.148438 0 0.921875 -0.125 C 0.691406 -0.257812 0.507812 -0.4375 0.375 -0.65625 C 0.238281 -0.882812 0.171875 -1.148438 0.171875 -1.453125 C 0.171875 -1.742188 0.238281 -2.003906 0.375 -2.234375 C 0.507812 -2.460938 0.691406 -2.640625 0.921875 -2.765625 C 1.148438 -2.890625 1.414062 -2.953125 1.71875 -2.953125 C 2.019531 -2.953125 2.285156 -2.890625 2.515625 -2.765625 C 2.753906 -2.640625 2.9375 -2.460938 3.0625 -2.234375 C 3.195312 -2.003906 3.265625 -1.742188 3.265625 -1.453125 C 3.265625 -1.148438 3.195312 -0.882812 3.0625 -0.65625 C 2.9375 -0.4375 2.753906 -0.257812 2.515625 -0.125 C 2.285156 0 2.019531 0.0625 1.71875 0.0625 Z M 0.84375 -1.453125 C 0.84375 -1.273438 0.878906 -1.117188 0.953125 -0.984375 C 1.035156 -0.859375 1.140625 -0.753906 1.265625 -0.671875 C 1.398438 -0.597656 1.550781 -0.5625 1.71875 -0.5625 C 1.894531 -0.5625 2.046875 -0.597656 2.171875 -0.671875 C 2.304688 -0.753906 2.410156 -0.859375 2.484375 -0.984375 C 2.554688 -1.117188 2.59375 -1.273438 2.59375 -1.453125 C 2.59375 -1.617188 2.554688 -1.769531 2.484375 -1.90625 C 2.410156 -2.039062 2.304688 -2.144531 2.171875 -2.21875 C 2.046875 -2.289062 1.894531 -2.328125 1.71875 -2.328125 C 1.550781 -2.328125 1.398438 -2.289062 1.265625 -2.21875 C 1.140625 -2.144531 1.035156 -2.039062 0.953125 -1.90625 C 0.878906 -1.769531 0.84375 -1.617188 0.84375 -1.453125 Z M 0.84375 -1.453125 "/></g></g></g><g fill="#ffffff" fill-opacity="1"><g transform="translate(55.829395, 26.909641)"><g><path d="M 1.359375 0.0625 C 1.117188 0.0625 0.910156 0.0195312 0.734375 -0.0625 C 0.554688 -0.144531 0.421875 -0.257812 0.328125 -0.40625 C 0.234375 -0.550781 0.1875 -0.722656 0.1875 -0.921875 L 0.828125 -0.921875 C 0.828125 -0.785156 0.875 -0.675781 0.96875 -0.59375 C 1.0625 -0.519531 1.191406 -0.484375 1.359375 -0.484375 C 1.492188 -0.484375 1.597656 -0.507812 1.671875 -0.5625 C 1.753906 -0.613281 1.796875 -0.691406 1.796875 -0.796875 C 1.796875 -0.890625 1.75 -0.96875 1.65625 -1.03125 C 1.5625 -1.101562 1.410156 -1.160156 1.203125 -1.203125 C 0.867188 -1.273438 0.617188 -1.382812 0.453125 -1.53125 C 0.285156 -1.675781 0.203125 -1.863281 0.203125 -2.09375 C 0.203125 -2.363281 0.296875 -2.570312 0.484375 -2.71875 C 0.679688 -2.875 0.945312 -2.953125 1.28125 -2.953125 C 1.507812 -2.953125 1.707031 -2.910156 1.875 -2.828125 C 2.050781 -2.753906 2.179688 -2.644531 2.265625 -2.5 C 2.359375 -2.363281 2.40625 -2.195312 2.40625 -2 L 1.78125 -2 C 1.78125 -2.125 1.738281 -2.222656 1.65625 -2.296875 C 1.570312 -2.378906 1.453125 -2.421875 1.296875 -2.421875 C 1.160156 -2.421875 1.050781 -2.390625 0.96875 -2.328125 C 0.882812 -2.273438 0.84375 -2.203125 0.84375 -2.109375 C 0.84375 -2.023438 0.882812 -1.953125 0.96875 -1.890625 C 1.0625 -1.828125 1.21875 -1.769531 1.4375 -1.71875 C 1.800781 -1.632812 2.0625 -1.519531 2.21875 -1.375 C 2.382812 -1.226562 2.46875 -1.039062 2.46875 -0.8125 C 2.46875 -0.539062 2.367188 -0.328125 2.171875 -0.171875 C 1.972656 -0.015625 1.703125 0.0625 1.359375 0.0625 Z M 1.359375 0.0625 "/></g></g></g><g fill="#ffffff" fill-opacity="1"><g transform="translate(59.935179, 26.909641)"><g><path d="M 0.34375 0 L 0.34375 -2.890625 L 1.484375 -2.890625 C 1.710938 -2.890625 1.910156 -2.847656 2.078125 -2.765625 C 2.253906 -2.679688 2.390625 -2.5625 2.484375 -2.40625 C 2.585938 -2.25 2.640625 -2.0625 2.640625 -1.84375 C 2.640625 -1.632812 2.585938 -1.453125 2.484375 -1.296875 C 2.390625 -1.140625 2.253906 -1.019531 2.078125 -0.9375 C 1.910156 -0.851562 1.710938 -0.8125 1.484375 -0.8125 L 1 -0.8125 L 1 0 Z M 1 -1.375 L 1.421875 -1.375 C 1.597656 -1.375 1.734375 -1.414062 1.828125 -1.5 C 1.921875 -1.582031 1.96875 -1.695312 1.96875 -1.84375 C 1.96875 -2 1.921875 -2.117188 1.828125 -2.203125 C 1.734375 -2.285156 1.597656 -2.328125 1.421875 -2.328125 L 1 -2.328125 Z M 1 -1.375 "/></g></g></g><g fill="#ffffff" fill-opacity="1"><g transform="translate(64.1403, 26.909641)"><g><path d="M 0.03125 0 L 1.1875 -2.890625 L 1.828125 -2.890625 L 2.984375 0 L 2.28125 0 L 2.09375 -0.5 L 0.9375 -0.5 L 0.734375 0 Z M 1.109375 -1.015625 L 1.921875 -1.015625 L 1.515625 -2.078125 Z M 1.109375 -1.015625 "/></g></g></g><g fill="#ffffff" fill-opacity="1"><g transform="translate(68.614448, 26.909641)"><g><path d="M 1.671875 0.0625 C 1.378906 0.0625 1.117188 0 0.890625 -0.125 C 0.671875 -0.257812 0.492188 -0.4375 0.359375 -0.65625 C 0.234375 -0.882812 0.171875 -1.148438 0.171875 -1.453125 C 0.171875 -1.742188 0.234375 -2.003906 0.359375 -2.234375 C 0.492188 -2.460938 0.671875 -2.640625 0.890625 -2.765625 C 1.117188 -2.890625 1.378906 -2.953125 1.671875 -2.953125 C 1.921875 -2.953125 2.144531 -2.90625 2.34375 -2.8125 C 2.550781 -2.71875 2.722656 -2.582031 2.859375 -2.40625 C 3.003906 -2.238281 3.101562 -2.039062 3.15625 -1.8125 L 2.46875 -1.8125 C 2.414062 -1.96875 2.316406 -2.09375 2.171875 -2.1875 C 2.035156 -2.28125 1.875 -2.328125 1.6875 -2.328125 C 1.53125 -2.328125 1.382812 -2.289062 1.25 -2.21875 C 1.125 -2.144531 1.023438 -2.039062 0.953125 -1.90625 C 0.878906 -1.769531 0.84375 -1.617188 0.84375 -1.453125 C 0.84375 -1.273438 0.878906 -1.117188 0.953125 -0.984375 C 1.023438 -0.859375 1.125 -0.753906 1.25 -0.671875 C 1.375 -0.597656 1.519531 -0.5625 1.6875 -0.5625 C 1.875 -0.5625 2.039062 -0.609375 2.1875 -0.703125 C 2.332031 -0.804688 2.4375 -0.941406 2.5 -1.109375 L 3.171875 -1.109375 C 3.128906 -0.867188 3.035156 -0.660156 2.890625 -0.484375 C 2.753906 -0.316406 2.582031 -0.179688 2.375 -0.078125 C 2.164062 0.015625 1.929688 0.0625 1.671875 0.0625 Z M 1.671875 0.0625 "/></g></g></g><g fill="#ffffff" fill-opacity="1"><g transform="translate(73.407294, 26.909641)"><g><path d="M 0.34375 0 L 0.34375 -2.890625 L 2.25 -2.890625 L 2.25 -2.34375 L 1 -2.34375 L 1 -1.75 L 2.140625 -1.75 L 2.140625 -1.1875 L 1 -1.1875 L 1 -0.5625 L 2.296875 -0.5625 L 2.296875 0 Z M 0.34375 0 "/></g></g></g><g fill="#ffffff" fill-opacity="1"><g transform="translate(77.368218, 26.909641)"><g/></g></g><g fill="#ffffff" fill-opacity="1"><g transform="translate(79.793609, 26.909641)"><g><path d="M 0.34375 0 L 0.34375 -2.890625 L 2.25 -2.890625 L 2.25 -2.34375 L 1 -2.34375 L 1 -1.75 L 2.140625 -1.75 L 2.140625 -1.1875 L 1 -1.1875 L 1 -0.5625 L 2.296875 -0.5625 L 2.296875 0 Z M 0.34375 0 "/></g></g></g><g fill="#ffffff" fill-opacity="1"><g transform="translate(83.754534, 26.909641)"><g><path d="M 0.34375 0 L 0.34375 -2.890625 L 0.90625 -2.890625 L 2.1875 -1.140625 L 2.1875 -2.890625 L 2.84375 -2.890625 L 2.84375 0 L 2.28125 0 L 1 -1.78125 L 1 0 Z M 0.34375 0 "/></g></g></g><g fill="#ffffff" fill-opacity="1"><g transform="translate(88.394243, 26.909641)"><g><path d="M 1.703125 0.0625 C 1.398438 0.0625 1.132812 0 0.90625 -0.125 C 0.675781 -0.257812 0.492188 -0.4375 0.359375 -0.65625 C 0.234375 -0.882812 0.171875 -1.148438 0.171875 -1.453125 C 0.171875 -1.742188 0.234375 -2.003906 0.359375 -2.234375 C 0.492188 -2.460938 0.675781 -2.640625 0.90625 -2.765625 C 1.132812 -2.890625 1.394531 -2.953125 1.6875 -2.953125 C 1.914062 -2.953125 2.128906 -2.910156 2.328125 -2.828125 C 2.535156 -2.742188 2.707031 -2.625 2.84375 -2.46875 C 2.976562 -2.320312 3.078125 -2.148438 3.140625 -1.953125 L 2.4375 -1.953125 C 2.363281 -2.078125 2.257812 -2.175781 2.125 -2.25 C 2 -2.320312 1.859375 -2.359375 1.703125 -2.359375 C 1.523438 -2.359375 1.375 -2.316406 1.25 -2.234375 C 1.125 -2.160156 1.023438 -2.054688 0.953125 -1.921875 C 0.878906 -1.785156 0.84375 -1.628906 0.84375 -1.453125 C 0.84375 -1.273438 0.875 -1.117188 0.9375 -0.984375 C 1.007812 -0.847656 1.109375 -0.738281 1.234375 -0.65625 C 1.367188 -0.582031 1.523438 -0.546875 1.703125 -0.546875 C 1.921875 -0.546875 2.097656 -0.597656 2.234375 -0.703125 C 2.378906 -0.816406 2.472656 -0.960938 2.515625 -1.140625 L 1.5625 -1.140625 L 1.5625 -1.640625 L 3.203125 -1.640625 C 3.222656 -1.390625 3.195312 -1.160156 3.125 -0.953125 C 3.0625 -0.753906 2.960938 -0.578125 2.828125 -0.421875 C 2.703125 -0.265625 2.539062 -0.144531 2.34375 -0.0625 C 2.15625 0.0195312 1.941406 0.0625 1.703125 0.0625 Z M 1.703125 0.0625 "/></g></g></g><g fill="#ffffff" fill-opacity="1"><g transform="translate(93.224342, 26.909641)"><g><path d="M 0.34375 0 L 0.34375 -2.890625 L 1 -2.890625 L 1 0 Z M 0.34375 0 "/></g></g></g><g fill="#ffffff" fill-opacity="1"><g transform="translate(96.030514, 26.909641)"><g><path d="M 0.34375 0 L 0.34375 -2.890625 L 0.90625 -2.890625 L 2.1875 -1.140625 L 2.1875 -2.890625 L 2.84375 -2.890625 L 2.84375 0 L 2.28125 0 L 1 -1.78125 L 1 0 Z M 0.34375 0 "/></g></g></g><g fill="#ffffff" fill-opacity="1"><g transform="translate(100.670224, 26.909641)"><g><path d="M 0.34375 0 L 0.34375 -2.890625 L 2.25 -2.890625 L 2.25 -2.34375 L 1 -2.34375 L 1 -1.75 L 2.140625 -1.75 L 2.140625 -1.1875 L 1 -1.1875 L 1 -0.5625 L 2.296875 -0.5625 L 2.296875 0 Z M 0.34375 0 "/></g></g></g><g fill="#ffffff" fill-opacity="1"><g transform="translate(104.631151, 26.909641)"><g><path d="M 0.34375 0 L 0.34375 -2.890625 L 2.25 -2.890625 L 2.25 -2.34375 L 1 -2.34375 L 1 -1.75 L 2.140625 -1.75 L 2.140625 -1.1875 L 1 -1.1875 L 1 -0.5625 L 2.296875 -0.5625 L 2.296875 0 Z M 0.34375 0 "/></g></g></g><g clip-path="url(#24f0fd8c18)"><g fill="#ffffff" fill-opacity="1"><g transform="translate(108.592078, 26.909641)"><g><path d="M 0.34375 0 L 0.34375 -2.890625 L 1.578125 -2.890625 C 1.804688 -2.890625 2 -2.847656 2.15625 -2.765625 C 2.320312 -2.691406 2.445312 -2.582031 2.53125 -2.4375 C 2.625 -2.289062 2.671875 -2.113281 2.671875 -1.90625 C 2.671875 -1.6875 2.617188 -1.5 2.515625 -1.34375 C 2.421875 -1.195312 2.289062 -1.082031 2.125 -1 L 2.71875 0 L 1.953125 0 L 1.4375 -0.90625 L 1 -0.90625 L 1 0 Z M 1 -1.453125 L 1.5 -1.453125 C 1.664062 -1.453125 1.789062 -1.488281 1.875 -1.5625 C 1.957031 -1.644531 2 -1.753906 2 -1.890625 C 2 -2.035156 1.957031 -2.144531 1.875 -2.21875 C 1.789062 -2.289062 1.664062 -2.328125 1.5 -2.328125 L 1 -2.328125 Z M 1 -1.453125 "/></g></g></g></g></svg>