<svg xmlns="http://www.w3.org/2000/svg" xmlns:xlink="http://www.w3.org/1999/xlink" width="150" zoomAndPan="magnify" viewBox="0 0 112.5 37.5" height="50" preserveAspectRatio="xMidYMid meet" version="1.0"><defs><g/><clipPath id="2def512379"><path d="M 0.492188 17 L 30 17 L 30 29 L 0.492188 29 Z M 0.492188 17 " clip-rule="nonzero"/></clipPath><clipPath id="8d509b6b38"><path d="M 105 10 L 111.511719 10 L 111.511719 21 L 105 21 Z M 105 10 " clip-rule="nonzero"/></clipPath><clipPath id="9497bdd819"><path d="M 108 24 L 111.511719 24 L 111.511719 27 L 108 27 Z M 108 24 " clip-rule="nonzero"/></clipPath></defs><g clip-path="url(#2def512379)"><path fill="#000000" d="M 19.878906 19.890625 C 16.136719 21.253906 12.683594 22.265625 10.179688 22.777344 C 7.878906 23.246094 6.382812 23.296875 6.207031 22.816406 C 6.039062 22.351562 7.128906 21.476562 9.054688 20.40625 C 9.25 20.300781 9.355469 20.089844 9.328125 19.871094 C 9.328125 19.867188 9.328125 19.863281 9.324219 19.859375 C 9.277344 19.496094 8.890625 19.289062 8.5625 19.449219 C 3.589844 21.890625 0.507812 24.117188 0.914062 25.230469 C 1.328125 26.367188 5.296875 26.050781 10.882812 24.628906 C 11.085938 24.578125 11.300781 24.648438 11.433594 24.8125 C 14.070312 28.144531 18.632812 29.578125 22.84375 28.042969 C 28.160156 26.101562 29.402344 22.21875 29.527344 19.34375 C 29.597656 17.6875 29.054688 16.542969 19.878906 19.890625 Z M 19.878906 19.890625 " fill-opacity="1" fill-rule="nonzero"/></g><path fill="#000000" d="M 37.835938 11.765625 C 37.414062 10.601562 33.289062 10.957031 27.523438 12.453125 C 24.921875 8.925781 20.226562 7.375 15.90625 8.949219 C 11.445312 10.578125 9.898438 13.695312 9.417969 16.242188 C 9.082031 18.015625 9.359375 19.605469 18.558594 16.25 C 22.242188 14.90625 25.648438 13.910156 28.140625 13.390625 C 30.507812 12.894531 32.054688 12.835938 32.230469 13.324219 C 32.386719 13.753906 31.46875 14.535156 29.800781 15.496094 C 29.433594 15.710938 29.246094 16.136719 29.328125 16.554688 C 29.328125 16.5625 29.332031 16.570312 29.332031 16.574219 C 29.457031 17.21875 30.167969 17.558594 30.75 17.265625 C 35.390625 14.9375 38.222656 12.832031 37.835938 11.765625 Z M 37.835938 11.765625 " fill-opacity="1" fill-rule="nonzero"/><g fill="#000000" fill-opacity="1"><g transform="translate(38.565499, 20.105996)"><g><path d="M 1.109375 0 L 1.109375 -9.234375 L 2.890625 -9.234375 L 6.171875 -4.4375 L 9.4375 -9.234375 L 11.203125 -9.234375 L 11.203125 0 L 9.125 0 L 9.125 -5.546875 L 6.890625 -2.28125 L 5.4375 -2.28125 L 3.1875 -5.5625 L 3.1875 0 Z M 1.109375 0 "/></g></g></g><g fill="#000000" fill-opacity="1"><g transform="translate(52.063279, 20.105996)"><g><path d="M 0.125 0 L 3.78125 -9.234375 L 5.84375 -9.234375 L 9.515625 0 L 7.265625 0 L 6.640625 -1.59375 L 2.984375 -1.59375 L 2.359375 0 Z M 3.515625 -3.25 L 6.125 -3.25 L 4.8125 -6.625 Z M 3.515625 -3.25 "/></g></g></g><g fill="#000000" fill-opacity="1"><g transform="translate(62.869407, 20.105996)"><g><path d="M 0.359375 0 L 3.5 -4.71875 L 0.5 -9.234375 L 2.90625 -9.234375 L 4.015625 -7.515625 L 4.859375 -6.234375 L 6.8125 -9.234375 L 9.203125 -9.234375 L 6.21875 -4.734375 L 9.359375 0 L 6.890625 0 L 5.625 -1.953125 L 4.859375 -3.125 L 4.09375 -1.953125 L 2.828125 0 Z M 0.359375 0 "/></g></g></g><g fill="#000000" fill-opacity="1"><g transform="translate(73.767893, 20.105996)"><g/></g></g><g fill="#000000" fill-opacity="1"><g transform="translate(78.042846, 20.105996)"><g><path d="M 6.8125 0 L 6.8125 -3.71875 L 3.203125 -3.71875 L 3.203125 0 L 1.109375 0 L 1.109375 -9.234375 L 3.203125 -9.234375 L 3.203125 -5.6875 L 6.8125 -5.6875 L 6.8125 -9.234375 L 8.921875 -9.234375 L 8.921875 0 Z M 6.8125 0 "/></g></g></g><g fill="#000000" fill-opacity="1"><g transform="translate(89.244819, 20.105996)"><g><path d="M 1.109375 0 L 1.109375 -9.234375 L 7.171875 -9.234375 L 7.171875 -7.46875 L 3.1875 -7.46875 L 3.1875 -5.546875 L 6.8125 -5.546875 L 6.8125 -3.796875 L 3.1875 -3.796875 L 3.1875 -1.78125 L 7.3125 -1.78125 L 7.3125 0 Z M 1.109375 0 "/></g></g></g><g fill="#000000" fill-opacity="1"><g transform="translate(98.414857, 20.105996)"><g><path d="M 1.109375 0 L 1.109375 -9.234375 L 3.203125 -9.234375 L 3.203125 0 Z M 1.109375 0 "/></g></g></g><g clip-path="url(#8d509b6b38)"><g fill="#000000" fill-opacity="1"><g transform="translate(103.903683, 20.105996)"><g><path d="M 1.109375 0 L 1.109375 -9.234375 L 3.203125 -9.234375 L 3.203125 -1.96875 L 7.234375 -1.96875 L 7.234375 0 Z M 1.109375 0 "/></g></g></g></g><g fill="#000000" fill-opacity="1"><g transform="translate(38.127326, 26.909641)"><g><path d="M 0.03125 0 L 1.1875 -2.890625 L 1.828125 -2.890625 L 2.984375 0 L 2.28125 0 L 2.09375 -0.5 L 0.9375 -0.5 L 0.734375 0 Z M 1.109375 -1.015625 L 1.921875 -1.015625 L 1.515625 -2.078125 Z M 1.109375 -1.015625 "/></g></g></g><g fill="#000000" fill-opacity="1"><g transform="translate(42.601475, 26.909641)"><g><path d="M 0.34375 0 L 0.34375 -2.890625 L 2.25 -2.890625 L 2.25 -2.34375 L 1 -2.34375 L 1 -1.75 L 2.140625 -1.75 L 2.140625 -1.1875 L 1 -1.1875 L 1 -0.5625 L 2.296875 -0.5625 L 2.296875 0 Z M 0.34375 0 "/></g></g></g><g fill="#000000" fill-opacity="1"><g transform="translate(46.5624, 26.909641)"><g><path d="M 0.34375 0 L 0.34375 -2.890625 L 1.578125 -2.890625 C 1.804688 -2.890625 2 -2.847656 2.15625 -2.765625 C 2.320312 -2.691406 2.445312 -2.582031 2.53125 -2.4375 C 2.625 -2.289062 2.671875 -2.113281 2.671875 -1.90625 C 2.671875 -1.6875 2.617188 -1.5 2.515625 -1.34375 C 2.421875 -1.195312 2.289062 -1.082031 2.125 -1 L 2.71875 0 L 1.953125 0 L 1.4375 -0.90625 L 1 -0.90625 L 1 0 Z M 1 -1.453125 L 1.5 -1.453125 C 1.664062 -1.453125 1.789062 -1.488281 1.875 -1.5625 C 1.957031 -1.644531 2 -1.753906 2 -1.890625 C 2 -2.035156 1.957031 -2.144531 1.875 -2.21875 C 1.789062 -2.289062 1.664062 -2.328125 1.5 -2.328125 L 1 -2.328125 Z M 1 -1.453125 "/></g></g></g><g fill="#000000" fill-opacity="1"><g transform="translate(50.928939, 26.909641)"><g><path d="M 1.71875 0.0625 C 1.414062 0.0625 1.148438 0 0.921875 -0.125 C 0.691406 -0.257812 0.507812 -0.4375 0.375 -0.65625 C 0.238281 -0.882812 0.171875 -1.148438 0.171875 -1.453125 C 0.171875 -1.742188 0.238281 -2.003906 0.375 -2.234375 C 0.507812 -2.460938 0.691406 -2.640625 0.921875 -2.765625 C 1.148438 -2.890625 1.414062 -2.953125 1.71875 -2.953125 C 2.019531 -2.953125 2.285156 -2.890625 2.515625 -2.765625 C 2.753906 -2.640625 2.9375 -2.460938 3.0625 -2.234375 C 3.195312 -2.003906 3.265625 -1.742188 3.265625 -1.453125 C 3.265625 -1.148438 3.195312 -0.882812 3.0625 -0.65625 C 2.9375 -0.4375 2.753906 -0.257812 2.515625 -0.125 C 2.285156 0 2.019531 0.0625 1.71875 0.0625 Z M 0.84375 -1.453125 C 0.84375 -1.273438 0.878906 -1.117188 0.953125 -0.984375 C 1.035156 -0.859375 1.140625 -0.753906 1.265625 -0.671875 C 1.398438 -0.597656 1.550781 -0.5625 1.71875 -0.5625 C 1.894531 -0.5625 2.046875 -0.597656 2.171875 -0.671875 C 2.304688 -0.753906 2.410156 -0.859375 2.484375 -0.984375 C 2.554688 -1.117188 2.59375 -1.273438 2.59375 -1.453125 C 2.59375 -1.617188 2.554688 -1.769531 2.484375 -1.90625 C 2.410156 -2.039062 2.304688 -2.144531 2.171875 -2.21875 C 2.046875 -2.289062 1.894531 -2.328125 1.71875 -2.328125 C 1.550781 -2.328125 1.398438 -2.289062 1.265625 -2.21875 C 1.140625 -2.144531 1.035156 -2.039062 0.953125 -1.90625 C 0.878906 -1.769531 0.84375 -1.617188 0.84375 -1.453125 Z M 0.84375 -1.453125 "/></g></g></g><g fill="#000000" fill-opacity="1"><g transform="translate(55.829395, 26.909641)"><g><path d="M 1.359375 0.0625 C 1.117188 0.0625 0.910156 0.0195312 0.734375 -0.0625 C 0.554688 -0.144531 0.421875 -0.257812 0.328125 -0.40625 C 0.234375 -0.550781 0.1875 -0.722656 0.1875 -0.921875 L 0.828125 -0.921875 C 0.828125 -0.785156 0.875 -0.675781 0.96875 -0.59375 C 1.0625 -0.519531 1.191406 -0.484375 1.359375 -0.484375 C 1.492188 -0.484375 1.597656 -0.507812 1.671875 -0.5625 C 1.753906 -0.613281 1.796875 -0.691406 1.796875 -0.796875 C 1.796875 -0.890625 1.75 -0.96875 1.65625 -1.03125 C 1.5625 -1.101562 1.410156 -1.160156 1.203125 -1.203125 C 0.867188 -1.273438 0.617188 -1.382812 0.453125 -1.53125 C 0.285156 -1.675781 0.203125 -1.863281 0.203125 -2.09375 C 0.203125 -2.363281 0.296875 -2.570312 0.484375 -2.71875 C 0.679688 -2.875 0.945312 -2.953125 1.28125 -2.953125 C 1.507812 -2.953125 1.707031 -2.910156 1.875 -2.828125 C 2.050781 -2.753906 2.179688 -2.644531 2.265625 -2.5 C 2.359375 -2.363281 2.40625 -2.195312 2.40625 -2 L 1.78125 -2 C 1.78125 -2.125 1.738281 -2.222656 1.65625 -2.296875 C 1.570312 -2.378906 1.453125 -2.421875 1.296875 -2.421875 C 1.160156 -2.421875 1.050781 -2.390625 0.96875 -2.328125 C 0.882812 -2.273438 0.84375 -2.203125 0.84375 -2.109375 C 0.84375 -2.023438 0.882812 -1.953125 0.96875 -1.890625 C 1.0625 -1.828125 1.21875 -1.769531 1.4375 -1.71875 C 1.800781 -1.632812 2.0625 -1.519531 2.21875 -1.375 C 2.382812 -1.226562 2.46875 -1.039062 2.46875 -0.8125 C 2.46875 -0.539062 2.367188 -0.328125 2.171875 -0.171875 C 1.972656 -0.015625 1.703125 0.0625 1.359375 0.0625 Z M 1.359375 0.0625 "/></g></g></g><g fill="#000000" fill-opacity="1"><g transform="translate(59.935179, 26.909641)"><g><path d="M 0.34375 0 L 0.34375 -2.890625 L 1.484375 -2.890625 C 1.710938 -2.890625 1.910156 -2.847656 2.078125 -2.765625 C 2.253906 -2.679688 2.390625 -2.5625 2.484375 -2.40625 C 2.585938 -2.25 2.640625 -2.0625 2.640625 -1.84375 C 2.640625 -1.632812 2.585938 -1.453125 2.484375 -1.296875 C 2.390625 -1.140625 2.253906 -1.019531 2.078125 -0.9375 C 1.910156 -0.851562 1.710938 -0.8125 1.484375 -0.8125 L 1 -0.8125 L 1 0 Z M 1 -1.375 L 1.421875 -1.375 C 1.597656 -1.375 1.734375 -1.414062 1.828125 -1.5 C 1.921875 -1.582031 1.96875 -1.695312 1.96875 -1.84375 C 1.96875 -2 1.921875 -2.117188 1.828125 -2.203125 C 1.734375 -2.285156 1.597656 -2.328125 1.421875 -2.328125 L 1 -2.328125 Z M 1 -1.375 "/></g></g></g><g fill="#000000" fill-opacity="1"><g transform="translate(64.1403, 26.909641)"><g><path d="M 0.03125 0 L 1.1875 -2.890625 L 1.828125 -2.890625 L 2.984375 0 L 2.28125 0 L 2.09375 -0.5 L 0.9375 -0.5 L 0.734375 0 Z M 1.109375 -1.015625 L 1.921875 -1.015625 L 1.515625 -2.078125 Z M 1.109375 -1.015625 "/></g></g></g><g fill="#000000" fill-opacity="1"><g transform="translate(68.614448, 26.909641)"><g><path d="M 1.671875 0.0625 C 1.378906 0.0625 1.117188 0 0.890625 -0.125 C 0.671875 -0.257812 0.492188 -0.4375 0.359375 -0.65625 C 0.234375 -0.882812 0.171875 -1.148438 0.171875 -1.453125 C 0.171875 -1.742188 0.234375 -2.003906 0.359375 -2.234375 C 0.492188 -2.460938 0.671875 -2.640625 0.890625 -2.765625 C 1.117188 -2.890625 1.378906 -2.953125 1.671875 -2.953125 C 1.921875 -2.953125 2.144531 -2.90625 2.34375 -2.8125 C 2.550781 -2.71875 2.722656 -2.582031 2.859375 -2.40625 C 3.003906 -2.238281 3.101562 -2.039062 3.15625 -1.8125 L 2.46875 -1.8125 C 2.414062 -1.96875 2.316406 -2.09375 2.171875 -2.1875 C 2.035156 -2.28125 1.875 -2.328125 1.6875 -2.328125 C 1.53125 -2.328125 1.382812 -2.289062 1.25 -2.21875 C 1.125 -2.144531 1.023438 -2.039062 0.953125 -1.90625 C 0.878906 -1.769531 0.84375 -1.617188 0.84375 -1.453125 C 0.84375 -1.273438 0.878906 -1.117188 0.953125 -0.984375 C 1.023438 -0.859375 1.125 -0.753906 1.25 -0.671875 C 1.375 -0.597656 1.519531 -0.5625 1.6875 -0.5625 C 1.875 -0.5625 2.039062 -0.609375 2.1875 -0.703125 C 2.332031 -0.804688 2.4375 -0.941406 2.5 -1.109375 L 3.171875 -1.109375 C 3.128906 -0.867188 3.035156 -0.660156 2.890625 -0.484375 C 2.753906 -0.316406 2.582031 -0.179688 2.375 -0.078125 C 2.164062 0.015625 1.929688 0.0625 1.671875 0.0625 Z M 1.671875 0.0625 "/></g></g></g><g fill="#000000" fill-opacity="1"><g transform="translate(73.407294, 26.909641)"><g><path d="M 0.34375 0 L 0.34375 -2.890625 L 2.25 -2.890625 L 2.25 -2.34375 L 1 -2.34375 L 1 -1.75 L 2.140625 -1.75 L 2.140625 -1.1875 L 1 -1.1875 L 1 -0.5625 L 2.296875 -0.5625 L 2.296875 0 Z M 0.34375 0 "/></g></g></g><g fill="#000000" fill-opacity="1"><g transform="translate(77.368218, 26.909641)"><g/></g></g><g fill="#000000" fill-opacity="1"><g transform="translate(79.793609, 26.909641)"><g><path d="M 0.34375 0 L 0.34375 -2.890625 L 2.25 -2.890625 L 2.25 -2.34375 L 1 -2.34375 L 1 -1.75 L 2.140625 -1.75 L 2.140625 -1.1875 L 1 -1.1875 L 1 -0.5625 L 2.296875 -0.5625 L 2.296875 0 Z M 0.34375 0 "/></g></g></g><g fill="#000000" fill-opacity="1"><g transform="translate(83.754534, 26.909641)"><g><path d="M 0.34375 0 L 0.34375 -2.890625 L 0.90625 -2.890625 L 2.1875 -1.140625 L 2.1875 -2.890625 L 2.84375 -2.890625 L 2.84375 0 L 2.28125 0 L 1 -1.78125 L 1 0 Z M 0.34375 0 "/></g></g></g><g fill="#000000" fill-opacity="1"><g transform="translate(88.394243, 26.909641)"><g><path d="M 1.703125 0.0625 C 1.398438 0.0625 1.132812 0 0.90625 -0.125 C 0.675781 -0.257812 0.492188 -0.4375 0.359375 -0.65625 C 0.234375 -0.882812 0.171875 -1.148438 0.171875 -1.453125 C 0.171875 -1.742188 0.234375 -2.003906 0.359375 -2.234375 C 0.492188 -2.460938 0.675781 -2.640625 0.90625 -2.765625 C 1.132812 -2.890625 1.394531 -2.953125 1.6875 -2.953125 C 1.914062 -2.953125 2.128906 -2.910156 2.328125 -2.828125 C 2.535156 -2.742188 2.707031 -2.625 2.84375 -2.46875 C 2.976562 -2.320312 3.078125 -2.148438 3.140625 -1.953125 L 2.4375 -1.953125 C 2.363281 -2.078125 2.257812 -2.175781 2.125 -2.25 C 2 -2.320312 1.859375 -2.359375 1.703125 -2.359375 C 1.523438 -2.359375 1.375 -2.316406 1.25 -2.234375 C 1.125 -2.160156 1.023438 -2.054688 0.953125 -1.921875 C 0.878906 -1.785156 0.84375 -1.628906 0.84375 -1.453125 C 0.84375 -1.273438 0.875 -1.117188 0.9375 -0.984375 C 1.007812 -0.847656 1.109375 -0.738281 1.234375 -0.65625 C 1.367188 -0.582031 1.523438 -0.546875 1.703125 -0.546875 C 1.921875 -0.546875 2.097656 -0.597656 2.234375 -0.703125 C 2.378906 -0.816406 2.472656 -0.960938 2.515625 -1.140625 L 1.5625 -1.140625 L 1.5625 -1.640625 L 3.203125 -1.640625 C 3.222656 -1.390625 3.195312 -1.160156 3.125 -0.953125 C 3.0625 -0.753906 2.960938 -0.578125 2.828125 -0.421875 C 2.703125 -0.265625 2.539062 -0.144531 2.34375 -0.0625 C 2.15625 0.0195312 1.941406 0.0625 1.703125 0.0625 Z M 1.703125 0.0625 "/></g></g></g><g fill="#000000" fill-opacity="1"><g transform="translate(93.224342, 26.909641)"><g><path d="M 0.34375 0 L 0.34375 -2.890625 L 1 -2.890625 L 1 0 Z M 0.34375 0 "/></g></g></g><g fill="#000000" fill-opacity="1"><g transform="translate(96.030514, 26.909641)"><g><path d="M 0.34375 0 L 0.34375 -2.890625 L 0.90625 -2.890625 L 2.1875 -1.140625 L 2.1875 -2.890625 L 2.84375 -2.890625 L 2.84375 0 L 2.28125 0 L 1 -1.78125 L 1 0 Z M 0.34375 0 "/></g></g></g><g fill="#000000" fill-opacity="1"><g transform="translate(100.670224, 26.909641)"><g><path d="M 0.34375 0 L 0.34375 -2.890625 L 2.25 -2.890625 L 2.25 -2.34375 L 1 -2.34375 L 1 -1.75 L 2.140625 -1.75 L 2.140625 -1.1875 L 1 -1.1875 L 1 -0.5625 L 2.296875 -0.5625 L 2.296875 0 Z M 0.34375 0 "/></g></g></g><g fill="#000000" fill-opacity="1"><g transform="translate(104.631151, 26.909641)"><g><path d="M 0.34375 0 L 0.34375 -2.890625 L 2.25 -2.890625 L 2.25 -2.34375 L 1 -2.34375 L 1 -1.75 L 2.140625 -1.75 L 2.140625 -1.1875 L 1 -1.1875 L 1 -0.5625 L 2.296875 -0.5625 L 2.296875 0 Z M 0.34375 0 "/></g></g></g><g clip-path="url(#9497bdd819)"><g fill="#000000" fill-opacity="1"><g transform="translate(108.592078, 26.909641)"><g><path d="M 0.34375 0 L 0.34375 -2.890625 L 1.578125 -2.890625 C 1.804688 -2.890625 2 -2.847656 2.15625 -2.765625 C 2.320312 -2.691406 2.445312 -2.582031 2.53125 -2.4375 C 2.625 -2.289062 2.671875 -2.113281 2.671875 -1.90625 C 2.671875 -1.6875 2.617188 -1.5 2.515625 -1.34375 C 2.421875 -1.195312 2.289062 -1.082031 2.125 -1 L 2.71875 0 L 1.953125 0 L 1.4375 -0.90625 L 1 -0.90625 L 1 0 Z M 1 -1.453125 L 1.5 -1.453125 C 1.664062 -1.453125 1.789062 -1.488281 1.875 -1.5625 C 1.957031 -1.644531 2 -1.753906 2 -1.890625 C 2 -2.035156 1.957031 -2.144531 1.875 -2.21875 C 1.789062 -2.289062 1.664062 -2.328125 1.5 -2.328125 L 1 -2.328125 Z M 1 -1.453125 "/></g></g></g></g></svg>